<svg id="Layer_1" data-name="Layer 1" xmlns="http://www.w3.org/2000/svg" viewBox="0 0 217.7784 309.5671"><defs><style>.cls-1{fill:#fff;}.cls-2{fill:#bf5700;}</style></defs><title>lift-logo</title><path class="cls-1" d="M1520.4423,426.2694c-30.4769-19.9774-65.0247-22.1714-99.3628-11.9623-34.6914,10.3141-57.0721,34.9347-68.9538,68.7109-6.9511,19.76-6.9622,39.7592,4.5854,58.1632,5.2772,8.4105,11.9928,15.9207,18.0848,23.8172,7.9681,10.3286,16.9739,20.0215,20.4712,33.1009,4.4545,16.6585,4.6111,33.5942,3.7369,50.6883a25.9241,25.9241,0,0,0,3.2,13.45c1.8383,3.2373,3.5834,5.9624,3.3922,9.8078-.4357,8.7558-.7844,17.52-.9206,26.2854-.1095,7.0507,2.5686,10.1506,9.49,11.0818a73.608,73.608,0,0,0,11.8258.6956,34.8841,34.8841,0,0,1,17.2876,4.2232c4.2586,2.1761,14.06,3.8748,14.2007,3.5278,3.0556-.3948,6.5982.068,9.0783-1.34,8.4789-4.8142,17.5094-6.5932,27.0848-7.3967,8.2006-.6882,11.6738-5.2665,11.7722-13.487.1155-9.6385.04-19.2818.3366-28.9141.0756-2.455,1.17-4.8991,1.9242-7.3083,1.312-4.1925,3.3261-8.2666,3.9466-12.55a114.6008,114.6008,0,0,0,.9226-18.0136c-.3222-22.5344,5.8385-42.5825,20.72-60.0111,7.5722-8.868,14.0192-18.7352,20.5772-28.42,6.9636-10.2842,11.4991-21.5841,11.3046-34.2508C1564.615,471.5323,1548.4691,444.6408,1520.4423,426.2694Z" transform="translate(-1347.3742 -408.337)"/><path class="cls-2" d="M1444.1013,710.581a33.7571,33.7571,0,0,0-16.7292-4.0868,71.227,71.227,0,0,1-11.4437-.6731c-6.6977-.9012-9.2892-3.9009-9.1832-10.7238.1318-8.4817.4692-16.9632.8908-25.4361.1852-3.7212-1.5037-6.3583-3.2825-9.491a25.088,25.088,0,0,1-3.0963-13.0151c.8459-16.5418.6943-32.93-3.6161-49.0507-3.3843-12.6568-12.0992-22.0367-19.81-32.0315-5.8951-7.6413-12.3938-14.9089-17.5-23.0478-11.1745-17.8094-11.1637-37.1626-4.4372-56.2841,11.4978-32.6849,33.1556-56.51,66.726-66.491,33.2287-9.8793,66.66-7.7562,96.1527,11.5758,27.1214,17.7778,42.7456,43.8006,43.26,77.3167.1881,12.2574-4.2007,23.1923-10.9394,33.1442-6.346,9.372-12.5849,18.92-19.9124,27.5019-14.4011,16.8656-20.3627,36.2659-20.0509,58.0723a110.9188,110.9188,0,0,1-.8928,17.4316c-.6005,4.1446-2.55,8.0871-3.8191,12.1441-.73,2.3314-1.789,4.6965-1.862,7.0721-.2867,9.3211-.214,18.6528-.3257,27.98-.0952,7.9549-3.4562,12.3853-11.392,13.0513-9.2659.7776-18.0047,2.4991-26.21,7.1577-2.4,1.3628-5.8282.915-8.7851,1.297C1457.7065,714.3306,1448.2223,712.6868,1444.1013,710.581Zm53.7068-148.0572c.553-.4453-.3459,2.3961-.8147,4.3877-4.6472,19.7434-9.418,39.4632-13.6281,59.3013-1.718,8.0956-2.2755,16.4525-3.043,24.72-.1266,1.3641,1.0743,3.794,2.1971,4.1822,8.7206,3.0143,15.3258-1.1982,16.33-10.5239.89-8.2657,1.2909-16.5865,1.8084-24.8893a90.775,90.775,0,0,1,17.3213-48.71c7.5393-10.3624,16.1344-19.9921,23.2295-30.6346,12.8613-19.2921,14.1-40.0934,3.94-60.7776-24.74-50.3646-75.0338-63.9219-124.1465-47.7631-25.2136,8.2957-40.8582,27.965-51.776,51.3474-10.599,22.6993-8.715,44.2589,7.412,64.0325q9.3173,11.4241,18.5059,22.9528c9.7545,12.3066,16.11,25.9286,16.3837,41.9929.1952,11.4707.54,22.9465,1.2291,34.3952.1487,2.4711,1.5673,6.4092,3.2565,6.9379a28.28,28.28,0,0,0,13.0374.822c.9469-.1688.8495-6.23,1.2141-9.58a3.2454,3.2454,0,0,0-.1034-.9918c-5.3669-25.5385-10.618-51.1025-16.228-76.5875-.94-4.2679-1.5018-8.093.8069-11.9278,1.8182-3.02,1.2817-5.7457-.106-8.9218-3.7927-8.68-7.5509-17.4232-10.4778-26.4162a58.1037,58.1037,0,0,1-2.4833-16.6478c-.095-4.7955,3.2438-6.5945,7.873-5.3224,8.8264,2.4256,14.7936,9.6459,15.9141,19.113a59.3976,59.3976,0,0,1-2.9175,27.9843c-2.4338,6.53.8263,10.4556,4.6393,14.5054,2.442,2.5939,5.0364,1.7534,7.62-.0421,2.5441-1.7679,4.173-3.4647,2.3912-6.9545a29.0333,29.0333,0,0,1-2.5212-8.5754c-.8669-5.4561,1.6206-8.7446,6.1816-8.748,3.4391-.0025,7.07,4.3528,6.588,8.6-.3508,3.09-1.7294,6.05-2.308,9.1324-.3185,1.6964-.6282,4.28.291,5.13a10.7827,10.7827,0,0,0,6.4465,2.7151c.8451.0323,2.2327-3.1408,2.6561-5.015,1.5741-6.9661,2.4432-14.1183,4.4382-20.9491.7958-2.7251,3.8309-4.7961,5.8467-7.165,1.42,2.7885,3.8694,5.5118,4.0508,8.3786.4169,6.59-.2705,13.2494-.551,21.0266,3.64-3.7568,7.6089-6.8732,10.1427-10.894,1.214-1.9263-.3287-5.562-.55-8.4291a50.9475,50.9475,0,0,1-.3571-7.4775c.29-4.06-1.0021-5.4188-5.1746-4.3849-1.8085.4481-3.953-.4609-5.9449-.7534,1.7633-.9428,3.5194-1.9,5.2972-2.814a2.258,2.258,0,0,1,.9852-.1265c3.7168-.0118,5.486-1.7435,6.3347-5.5209.975-4.34,2.9536-8.4539,4.4962-12.666l2.2854.1572c.8756,4.4274,2.0547,8.8231,2.5238,13.2932.3326,3.17.6409,5.6867,4.0975,7.1042,1.69.6932,2.8628,2.65,4.27,4.0343l-.9539,1.5086-7.1045-2.5179c-1.0157,4.6218-2.276,9.0867-2.882,13.6387-.3124,2.3463-.2107,5.346,1.01,7.1827C1490.0876,553.338,1494.0865,557.8387,1497.808,562.5238Zm-78.3817-5.6538-1.8158-.0212c0,2.7862-.49,5.6768.077,8.3423,4.8805,22.9341,10.1236,45.7922,14.8621,68.7548,1.4241,6.9012,1.6022,14.06,2.3362,20.96h40.8c.95-8.4353,1.2285-16.4734,2.848-24.2316,4.5172-21.64,9.622-43.1569,14.3846-64.7467.3936-1.7842.7216-4.44-.2374-5.5109-3.3879-3.7842-7.3491-7.0552-10.6164-10.08l-17.1083,12.3962c2.0673,5.4192,5.0576,10.8439,6.08,16.6172,1.0256,5.79-3.76,12.0972-7.7646,12.5119-4.1116.4258-8.7778-4.8283-9.4771-11.2171-.552-5.0433-.5883-10.1431-.82-14.5744l-12.8022-5.6532C1430.2347,567.2324,1429.2642,567.0784,1419.4263,556.87Zm-1.6088-12.7485c3.6827-7.5775,5.3134-22.1807,3.4554-28.6288-1.6687-5.791-4.5773-10.6883-10.4078-13.2178-4.5462-1.9723-6.541-.4459-5.8,4.5865C1406.97,519.7853,1412.4452,531.4687,1417.8175,544.1215ZM1488.0624,673.9c-2.32.36-3.8065.542-5.2732.8256-19.0712,3.6878-38.1583,7.2984-57.1864,11.1969-2.5643.5254-4.828,2.5177-7.2309,3.8308,2.243,3.2537,5.3757,2.5382,8.51,1.9415q26.43-5.0313,52.8638-10.0445a47.8043,47.8043,0,0,0,8.6856-2.0115c1.33-.5276,2.0866-2.5013,3.1028-3.82Zm2.3117-9.6654c-1.5695-.1772-3.2011-.726-4.6991-.4756-20.66,3.4538-41.313,6.95-61.93,10.6487-2.3129.4149-4.3926,2.1289-7.1189,3.514C1421.7768,681.348,1485.0494,670.0369,1490.3741,664.2344Zm-33.617-1.2353-.236-1.9978c-8.5575,0-17.1153-.0393-25.6723.0214-2.9717.0211-6.0676-.1634-8.8657.6136-1.7061.4738-2.9526,2.6024-4.4055,3.9877,1.8548,1.0854,3.8724,3.31,5.5381,3.0723C1434.371,667.0885,1445.552,664.9595,1456.757,662.9991Zm1.5282-97.8786c-3.0479,9.6447-1.1228,19.2564,4.5643,22.7889C1469.9754,580.916,1467.835,570.2294,1458.2852,565.1206Zm-.8517,125.8322.14,1.1237c9.8359,0,19.672.03,29.5072-.05a3.9547,3.9547,0,0,0,2.6654-1.1622,5.3878,5.3878,0,0,0,1.4733-3.3124c-.0211-.5722-1.77-1.5626-2.7082-1.53a67.6987,67.6987,0,0,0-8.8723.9733C1472.2257,688.2485,1464.8338,689.6254,1457.4335,690.9528Zm.44-132.94c7.3681-4.6816,9.28-13.3218,5.0121-23.7587Zm-12.2844,140.6637c7.9763,4.8564,17.1543,4.6559,21.6392,0Zm-5.05-148.8775,1.2929-.0257c.5516-2.2856,1.5991-4.6018,1.4605-6.8447-.0777-1.2568-2.12-2.3923-3.2765-3.5824-.5236,1.24-1.6041,2.552-1.4531,3.7031A41.7775,41.7775,0,0,0,1440.5389,549.799Zm43.7058-24.1386-2.3511-.1581v9.7193l1.2715.1009Z" transform="translate(-1347.3742 -408.337)"/><path class="cls-2" d="M1447.7106,528.4915a5.9845,5.9845,0,0,1-6.7964,5.6659c-3.6676-.3457-6.5368-1.9445-6.3458-6.1417.1871-4.1133,3.0767-5.63,6.7806-5.7342A6.1756,6.1756,0,0,1,1447.7106,528.4915Zm-6.3245,3.5135c1.1411-1.7755,2.5528-3.0209,2.3607-3.926a3.8158,3.8158,0,0,0-2.9106-2.3621,3.6558,3.6558,0,0,0-2.4942,2.6874C1438.3651,529.4137,1439.9289,530.3877,1441.386,532.005Z" transform="translate(-1347.3742 -408.337)"/></svg>