<svg id="Layer_1" data-name="Layer 1" xmlns="http://www.w3.org/2000/svg" viewBox="0 0 1021.0001 285.733"><defs><style>.cls-1{fill:#fff;}</style></defs><title>ut-logo-sm</title><polygon class="cls-1" points="87.217 75.18 87.41 75.18 87.41 75.113 87.217 75.113 87.217 75.18"/><path class="cls-1" d="M117.929,61.244a92.2225,92.2225,0,0,0-13.29-1.416,24.7721,24.7721,0,0,0-5.778.62l-.948-26.499V29.554a18.0128,18.0128,0,0,1,7.026-1.15,90.556,90.556,0,0,1,12.418,1.276c3.943.579,7.998,1.149,12.15,1.421l1.142,31.674c-4.263-.234-8.552-.879-12.72-1.531Zm-45.231,0c-4.169.652-8.458,1.297-12.722,1.531l1.136-31.674c4.161-.271,8.212-.842,12.156-1.421a90.5558,90.5558,0,0,1,12.418-1.276,18.0432,18.0432,0,0,1,7.026,1.15v4.395l-.944,26.499a24.7783,24.7783,0,0,0-5.778-.62,92.1311,92.1311,0,0,0-13.292,1.416Zm67.329-18.689V36.532h-3.718V26.238h-2.508a108.2693,108.2693,0,0,1-15.714-1.523,94.3272,94.3272,0,0,0-13.148-1.334,22.3928,22.3928,0,0,0-9.624,1.839,22.4334,22.4334,0,0,0-9.628-1.839,94.227,94.227,0,0,0-13.145,1.334,108.3925,108.3925,0,0,1-15.718,1.523H54.316V36.531H50.603v6.023h3.713v8.154H50.643v6.025h3.673V67.904h2.508a108.7758,108.7758,0,0,0,16.642-1.695,88.36,88.36,0,0,1,12.525-1.366,14.8433,14.8433,0,0,1,6.903,1.325h4.838a14.8485,14.8485,0,0,1,6.907-1.325,88.3091,88.3091,0,0,1,12.521,1.366,108.8661,108.8661,0,0,0,16.642,1.695h2.508V56.734h3.668V50.709H136.31V42.555Z" transform="translate(-8 -5)"/><path class="cls-1" d="M73.384,34.232c-.251.033-.493.074-.743.106-2.359.349-4.756.702-7.177.977l-.14,4.063c2.68-.291,5.307-.686,7.9-1.067.054-.009.107-.017.16-.024V34.232Z" transform="translate(-8 -5)"/><path class="cls-1" d="M76.396,33.801v4.055a54.91,54.91,0,0,1,11.589-.738l.143-3.996a56.6793,56.6793,0,0,0-11.732.679Z" transform="translate(-8 -5)"/><path class="cls-1" d="M73.384,52.61c-.251.036-.493.068-.743.11-2.572.378-5.191.76-7.838,1.051l-.148,4.055c2.911-.309,5.767-.725,8.569-1.133.054-.009.107-.018.16-.025V52.61Z" transform="translate(-8 -5)"/><path class="cls-1" d="M76.396,52.183v4.055a58.9879,58.9879,0,0,1,10.929-.788l.148-3.996a60.2107,60.2107,0,0,0-11.077.729Z" transform="translate(-8 -5)"/><path class="cls-1" d="M72.76,43.516v4.062c.156-.024.307-.049.464-.074,5.368-.783,10.276-1.506,14.434-1.23l.14-3.989c-4.594-.283-9.728.446-15.038,1.231Z" transform="translate(-8 -5)"/><path class="cls-1" d="M69.748,43.946c-1.527.218-3.066.423-4.617.604l-.143,4.055c1.604-.173,3.192-.386,4.76-.604V43.946Z" transform="translate(-8 -5)"/><path class="cls-1" d="M112.4,33.567a50.95,50.95,0,0,0-9.903-.446l.144,3.996a48.2459,48.2459,0,0,1,9.76.497V33.567Z" transform="translate(-8 -5)"/><path class="cls-1" d="M125.163,35.315c-2.421-.274-4.818-.628-7.183-.977-.862-.123-1.715-.25-2.568-.365v4.055c.656.091,1.317.185,1.995.283,2.584.382,5.219.776,7.904,1.067l-.148-4.063Z" transform="translate(-8 -5)"/><path class="cls-1" d="M111.575,42.657a50.8581,50.8581,0,0,0-8.75-.373l.148,3.989a47.2952,47.2952,0,0,1,8.601.422V42.657Z" transform="translate(-8 -5)"/><path class="cls-1" d="M125.491,44.55c-2.533-.288-5.044-.653-7.511-1.018-1.136-.165-2.273-.337-3.394-.489v4.056c.919.126,1.855.267,2.82.405,2.691.398,5.441.797,8.232,1.101l-.147-4.055Z" transform="translate(-8 -5)"/><path class="cls-1" d="M117.599,56.717c2.738.406,5.528.81,8.368,1.109l-.139-4.055c-2.652-.291-5.27-.673-7.848-1.051-.126-.025-.25-.042-.381-.059v4.056Z" transform="translate(-8 -5)"/><path class="cls-1" d="M114.587,52.232a62.2635,62.2635,0,0,0-11.438-.779l.148,3.996a60.3828,60.3828,0,0,1,11.29.838V52.232Z" transform="translate(-8 -5)"/><path class="cls-1" d="M90.09,117.049l5.225-13.066,5.224,13.066,14.048.936-10.818,9.013,3.459,13.638L95.315,133.13l-11.906,7.506,3.451-13.638-10.813-9.013,14.043-.936Zm-31.825-4.637v.008l22.703,16.498-8.75,26.894a.21.21,0,0,0,.074.131.2081.2081,0,0,0,.14.033l22.884-16.642,22.875,16.634a.2012.2012,0,0,0,.14-.025.197.197,0,0,0,.045-.246l-8.705-26.786,22.699-16.49-.008-.008a.2059.2059,0,0,0,.135-.255.1934.1934,0,0,0-.25-.114v-.009H104.184L95.517,85.351h-.013a.2.2,0,0,0-.188-.214.2075.2075,0,0,0-.194.214H95.11l-8.663,26.684H58.388l-.008.017a.1946.1946,0,0,0-.255.115.1985.1985,0,0,0,.14.245Z" transform="translate(-8 -5)"/><path class="cls-1" d="M151.649,146.139a15.0058,15.0058,0,0,1-7.641,4.535,15.0895,15.0895,0,0,1,11.404-12.604,15.0345,15.0345,0,0,1-3.763,8.069Zm-10.978-17.653a15.1991,15.1991,0,0,1,1.498-8.781,15.1418,15.1418,0,0,1,3.689,8.102,14.9493,14.9493,0,0,1-1.486,8.757,15.1058,15.1058,0,0,1-3.701-8.078Zm6.079-22.972a15.2317,15.2317,0,0,1,.969-8.857,15.16,15.16,0,0,1,3.204,16.717,15.2382,15.2382,0,0,1-4.173-7.86Zm14.503,6.701a15.11,15.11,0,0,1-8.558,14.701,15.0847,15.0847,0,0,1,8.558-14.701Zm-22.235,57.056a15.0519,15.0519,0,0,1-8.409,2.864,15.0731,15.0731,0,0,1,13.756-9.98,14.9841,14.9841,0,0,1-5.347,7.116Zm-7.101-19.534a15.1756,15.1756,0,0,1,3.284-8.282,15.1568,15.1568,0,0,1-1.334,16.958,15.1417,15.1417,0,0,1-1.95-8.676Zm-7.924,20.454a15.0675,15.0675,0,0,1-4.908,7.42,15.0885,15.0885,0,0,1,4.806-16.318,15.0833,15.0833,0,0,1,.102,8.898Zm4.592,13.247a15.074,15.074,0,0,1-6.71,5.86,14.8345,14.8345,0,0,1-6.11,1.313h0a15.0237,15.0237,0,0,1-2.709-.246,15.1053,15.1053,0,0,1,15.529-6.927Zm-26.207,1.191a15.1437,15.1437,0,0,1,6.349-6.255,15.17,15.17,0,0,1-8.072,14.98,15.0835,15.0835,0,0,1,1.723-8.725Zm-33.919,4.67a15.09,15.09,0,0,1-6.71-5.86,15.0975,15.0975,0,0,1,15.529,6.927,14.89,14.89,0,0,1-8.819-1.067Zm-2.118-19.116a15.0947,15.0947,0,0,1,.111-8.889,15.0915,15.0915,0,0,1,4.798,16.317,15.056,15.056,0,0,1-4.909-7.428Zm15.275,8.191a15.07,15.07,0,0,1,8.064,14.979,15.1465,15.1465,0,0,1-8.064-14.979Zm-30.295-9.103a15.0561,15.0561,0,0,1-5.352-7.116,15.0979,15.0979,0,0,1,13.76,9.98,15.0437,15.0437,0,0,1-8.408-2.864Zm3.816-27.816a15.0833,15.0833,0,0,1,1.331,16.958,15.1331,15.1331,0,0,1-1.331-16.958Zm-16.452,4.684a15.1277,15.1277,0,0,1-3.759-8.068,15.0915,15.0915,0,0,1,11.401,12.604,15.0243,15.0243,0,0,1-7.642-4.536Zm-1.038-19.224a15.0933,15.0933,0,0,1-8.558-14.701,15.0864,15.0864,0,0,1,8.558,14.701Zm.8-22.403a15.1392,15.1392,0,0,1,4.174-7.855,15.135,15.135,0,0,1-3.209,16.717,15.0306,15.0306,0,0,1-.965-8.862Zm6.029,23.286a15.139,15.139,0,0,1,3.693-8.093,15.0987,15.0987,0,0,1-2.199,16.858,15.0065,15.0065,0,0,1-1.494-8.765Zm107.182,3.8a19.1176,19.1176,0,0,0,13.165-22.592l-.472-2.089-2.061.606a19.2212,19.2212,0,0,0-6.435,3.357,18.7365,18.7365,0,0,0-.029-7.115,19.0782,19.0782,0,0,0-7.534-11.877l-1.741-1.272-1.145,1.827a19.1468,19.1468,0,0,0,4.884,25.648,18.7992,18.7992,0,0,0-1.457,5.113,19.2067,19.2067,0,0,0-5.804-8.225l-1.662-1.375-1.251,1.754a19.1678,19.1678,0,0,0,3.385,25.953l.09.053a18.9152,18.9152,0,0,0-2.598,4.889,19.1887,19.1887,0,0,0-3.981-9.252l-1.342-1.682-1.588,1.457a19.1478,19.1478,0,0,0-2.044,26.084l.082.099a18.6428,18.6428,0,0,0-3.558,4.227,19.1567,19.1567,0,0,0-1.979-9.883l-.964-1.92-1.851,1.1a19.1361,19.1361,0,0,0-7.383,25.109l.044.106a18.93,18.93,0,0,0-4.346,3.405,19.1408,19.1408,0,0,0,.099-10.07l-.546-2.076-2.043.682a19.1212,19.1212,0,0,0-12.501,22.579c-.611.428-1.256.861-1.929,1.321-.675-.46-1.312-.894-1.929-1.321a19.1081,19.1081,0,0,0-12.501-22.579l-2.04-.682-.546,2.076a19.13,19.13,0,0,0,.099,10.07,18.8454,18.8454,0,0,0-4.35-3.405l.054-.106a19.1556,19.1556,0,0,0-7.387-25.109l-1.852-1.1-.964,1.92a19.1358,19.1358,0,0,0-1.978,9.883,18.8278,18.8278,0,0,0-3.558-4.227l.074-.099a19.1432,19.1432,0,0,0-2.044-26.084l-1.588-1.457-1.333,1.682a19.1508,19.1508,0,0,0-3.981,9.252,19.0511,19.0511,0,0,0-2.602-4.889l.091-.053a19.1645,19.1645,0,0,0,3.39-25.953l-1.251-1.754-1.658,1.375a19.0441,19.0441,0,0,0-5.803,8.232,18.77,18.77,0,0,0-1.461-5.121,19.1378,19.1378,0,0,0,4.88-25.648L43.78,90.615l-1.736,1.272a19.1629,19.1629,0,0,0-7.568,18.992,19.1559,19.1559,0,0,0-6.435-3.357l-2.061-.606-.472,2.089a19.1293,19.1293,0,0,0,13.165,22.592l1.818.546a19.1344,19.1344,0,0,0,1.12,4.478,18.832,18.832,0,0,0-8.684-2.922l-2.139-.181-.033,2.159a19.125,19.125,0,0,0,17.549,19.371l1.888.154a18.4848,18.4848,0,0,0,2.019,4.137,19.0255,19.0255,0,0,0-6.656-1.206,20.1831,20.1831,0,0,0-2.438.147l-2.134.279.415,2.102a19.2068,19.2068,0,0,0,7.563,11.868,18.9083,18.9083,0,0,0,11.211,3.627,19.3672,19.3672,0,0,0,2.397-.149l1.879-.235a19.1574,19.1574,0,0,0,2.84,3.637,19.181,19.181,0,0,0-9.127.836l-2.035.716.85,1.978a19.186,19.186,0,0,0,9.841,10.03,18.8923,18.8923,0,0,0,7.748,1.657,19.36,19.36,0,0,0,6.292-1.059l1.498-.526a110.9368,110.9368,0,0,0,9.205,6.902c-1.764,1.166-3.726,2.447-5.917,3.851l3.78,2.339c2.129-1.369,4.021-2.609,5.741-3.759,1.725,1.149,3.612,2.39,5.746,3.759l3.775-2.339c-2.192-1.403-4.149-2.685-5.914-3.851a111.4762,111.4762,0,0,0,9.201-6.902l1.498.526a19.4186,19.4186,0,0,0,6.292,1.059h0a19.0153,19.0153,0,0,0,7.748-1.65,19.23,19.23,0,0,0,9.85-10.037l.837-1.978-2.027-.716a19.0837,19.0837,0,0,0-9.127-.828,19.34,19.34,0,0,0,2.84-3.645l1.879.235a19.233,19.233,0,0,0,2.397.149h0a18.9083,18.9083,0,0,0,11.208-3.627,19.1647,19.1647,0,0,0,7.563-11.868l.414-2.102-2.129-.279a20.1409,20.1409,0,0,0-2.438-.147,19.0355,19.0355,0,0,0-6.657,1.206,18.7905,18.7905,0,0,0,2.019-4.137l1.883-.154a19.1311,19.1311,0,0,0,17.549-19.371l-.025-2.159-2.15.181a18.8517,18.8517,0,0,0-8.675,2.922,19.1079,19.1079,0,0,0,1.119-4.478l1.8179-.545Z" transform="translate(-8 -5)"/><path class="cls-1" d="M152.175,174.032a106.2027,106.2027,0,0,1-14.417,16.942,154.6722,154.6722,0,0,1-42.463,27.117,154.7764,154.7764,0,0,1-42.468-27.117,106.1212,106.1212,0,0,1-14.413-16.942c-19.772-28.953-22.37-62.527-22.387-88.616h.024l79.264-4.402,79.247,4.395c-.02,26.087-2.615,59.67-22.387,88.623ZM20.254,18.043c14.738-1.639,47.864-4.934,75.062-4.934,27.188,0,60.319,3.295,75.052,4.934L174.493,76.1H16.134l4.12-58.057Zm162.343-6.719-3.513-.439C178.617,10.828,131.803,5,95.34,5h-.053c-36.46,0-83.273,5.828-83.737,5.885l-3.517.439V76.1H8v9.037c0,27.292,2.705,62.557,23.786,93.435a114.0611,114.0611,0,0,0,15.197,17.935l-.004.008c.041.033.078.065.119.099,11.438,11.007,26.552,21.381,48.176,33.431v.032c.008-.017.012-.017.021-.017s.012,0,.021.017v-.032c21.618-12.05,36.738-22.424,48.175-33.431.041-.033.078-.065.115-.099v-.008a114.4365,114.4365,0,0,0,15.202-17.935c21.077-30.878,23.786-66.143,23.786-93.435V83.854h.004V11.324Z" transform="translate(-8 -5)"/><polygon class="cls-1" points="222.018 13.399 222.018 59.133 232.089 59.133 243.982 26.318 282.74 25.797 282.74 182.395 251.73 185.761 253.022 194.806 296.434 194.024 338.294 194.806 339.587 185.761 309.87 182.395 309.87 25.797 348.632 26.318 360.521 59.133 370.601 59.133 370.601 13.399 296.18 14.176 222.018 13.399"/><polygon class="cls-1" points="506.266 181.887 435.208 182.657 435.208 105.13 471.384 106.164 481.727 133.3 490.771 133.3 488.182 98.416 490.771 66.109 481.727 66.109 471.384 93.245 435.208 94.279 435.208 25.539 503.691 26.318 518.15 59.909 526.951 59.909 524.356 13.399 421.772 14.176 386.114 13.399 384.816 22.444 408.075 25.797 408.075 182.395 384.816 185.761 386.114 194.806 421.772 194.024 524.356 194.806 533.401 146.996 523.585 146.996 506.266 181.887"/><path class="cls-1" d="M814.295,16.072l-15.504,4.396-64.088,167.453-12.442,1.674-12.369-1.938-57.364-84.504,52.963-72.869,20.16-2.84-1.279-9.045-30.238.776-30.238-.776-1.295,9.045,22.488,3.353L644.064,91.08,607.565,30.539l21.964-3.354-1.29-9.045-36.696,1.035L554.592,18.14l-1.297,9.045,20.158,2.84,53.489,80.881-55.813,76.751-20.16,2.84,1.299,9.309,28.941-.781,30.229.781,1.296-9.309-21.191-3.103,44.053-64.443,40.185,64.188-21.965,3.357,1.297,9.309,36.952-.781,30.196.642,21.225-.642,31.01.781,1.297-9.045L753.3,187.394l16.814-48.324h63.824l17.572,48.324-21.973,3.366,1.298,9.045,34.108-.781,35.666.781,1.285-9.045-20.155-2.84ZM774.248,126.924l26.8-77.482,28.234,77.482Z" transform="translate(-8 -5)"/><path class="cls-1" d="M989.509,98.245,959.778,85.326c-14.197-6.205-24.276-14.987-24.276-29.203,0-17.314,12.147-28.429,32.552-28.429,15.514,0,23.778,5.692,30.496,12.669l7.49,23.512h12.919V28.992c-12.919-9.559-31.01-14.988-47.278-14.988-35.924,7.498-61.773,24.033-61.773,52.197,0,22.999,15.252,34.884,33.857,42.895l31.266,13.695c15.514,6.722,26.872,16.801,26.872,34.365,0,18.869-12.919,32.824-35.138,32.824-14.469,0-28.686-6.723-36.434-16.275l-9.045-21.965h-18.091l5.679,34.884c13.709,10.85,29.73,17.563,53.501,17.563,48.573-10.071,65.12-33.586,65.12-57.877C1027.749,119.946,1009.913,107.027,989.509,98.245Z" transform="translate(-8 -5)"/><path class="cls-1" d="M310.457,277.696l-5.169.165-.277-1.925,2.699-.545V259.659c0-2.865-1.321-4.129-3.521-4.129-1.652,0-3.794,1.212-5.832,2.473l-1.65,1.044v16.345l3.024.545-.277,1.925-5.224-.165-5.778.165-.273-1.925,3.299-.545V241.725l-1.982.323-11.164-.166v33.343l6.326.712-.272,1.925-8.914-.165-9.245.165-.272-1.925,6.599-.712V241.882l-8.25.166-2.53,6.877h-2.149v-9.736l15.792.111,13.529-.111,5.891-.657h1.871v17.824l8.031-5.229c7.042,0,8.195,2.642,8.195,9.63v14.636l4.126.545-.272,1.925Z" transform="translate(-8 -5)"/><path class="cls-1" d="M324.77,263.775c0,6.275,3.354,10.736,9.128,10.736a14.1875,14.1875,0,0,0,6.876-2.313l.885,2.091a33.62,33.62,0,0,1-9.63,4.349c-6.659,0-12.655-4.736-12.655-13.371,0-8.145,4.9-12.484,12.432-14.141,7.265,0,9.742,4.571,9.742,10.348v2.302H324.77Zm11.053-2.748c0-4.233-.823-7.154-5.056-7.154-3.36,0-5.503,3.138-5.947,7.711Z" transform="translate(-8 -5)"/><path class="cls-1" d="M379.015,241.168l.272-1.924,7.042.166,6.437-.166.277,1.924-4.679.714v22.449c0,7.153-2.914,11.938-13.861,14.466-10.838,0-14.692-5.832-14.692-14.576V241.882l-4.951-.714.279-1.924,7.588.166,7.537-.166.277,1.924-4.677.714v23.163c0,6.82,2.914,10.725,9.189,10.725,5.718,0,8.911-3.849,8.911-10.891V241.882Z" transform="translate(-8 -5)"/><path class="cls-1" d="M400.475,277.696l-6.33.165-.273-1.925,3.849-.545V255.308l-3.849.333-.274-1.925,6.6-1.712,2.368-.167.273,4.628,8.145-5.34c7.042,0,8.193,2.369,8.193,8.967v15.299l4.184.545-.277,1.925-6.326-.165-5.279.165-.277-1.925,2.753-.545V259.659c0-2.865-1.268-4.129-3.634-4.129-1.925,0-3.849,1.212-5.723,2.473l-1.647,1.1v16.289l3.027.545-.277,1.925Z" transform="translate(-8 -5)"/><path class="cls-1" d="M432.001,277.696l-6.331.165-.272-1.925,3.849-.545V255.308l-3.849.333-.277-1.925,6.603-1.712,2.751-.218V275.39l4.125.545-.274,1.925Zm-2.754-37.851,3.962-.268,1.539.268.275,3.082-.604,2.648-3.909.322-1.483-.322-.33-3.083Z" transform="translate(-8 -5)"/><path class="cls-1" d="M454.059,274.289l6.659-19.914-2.532-.558.272-1.924,4.846.167,4.568-.167.272,1.924-3.521.558L455.6,276.983l-4.016,1.654-9.575-24.263-3.41-.558.277-1.924,6.326.167,5.774-.167.277,1.924-3.632.558,5.998,16.121Z" transform="translate(-8 -5)"/><path class="cls-1" d="M473.536,263.775c0,6.275,3.357,10.736,9.134,10.736a14.2183,14.2183,0,0,0,6.876-2.313l.879,2.091a33.5386,33.5386,0,0,1-9.625,4.349c-6.659,0-12.655-4.736-12.655-13.371,0-8.145,4.896-12.484,12.433-14.141,7.264,0,9.738,4.571,9.738,10.348v2.302h-16.78Zm11.058-2.748c0-4.233-.822-7.154-5.06-7.154-3.354,0-5.503,3.138-5.942,7.711Z" transform="translate(-8 -5)"/><path class="cls-1" d="M502.644,259.103l6.271-7.699h4.399v5.497h-4.068c-1.322.277-3.741,2.091-5.227,3.904l-1.102,1.324v13.096l5.779.545-.277,2.092-7.977-.165-6.159.165-.278-1.925,3.849-.545V255.309l-3.849.333-.272-1.925,6.598-1.712,2.203-.167Z" transform="translate(-8 -5)"/><path class="cls-1" d="M530.648,255.031a8.66,8.66,0,0,0-4.186-1.214c-2.143,0-4.178,1.158-4.178,3.249,0,1.759,1.375,2.86,3.849,4.13l4.235,2.146c3.685,1.869,5.172,3.961,5.172,7.098,0,4.952-4.014,6.821-10.343,8.198a18.8131,18.8131,0,0,1-8.358-2.479l-1.047-6.218h3.519l1.868,4.571a8.31,8.31,0,0,0,4.521,1.369,4.0065,4.0065,0,0,0,4.39-4.175c0-2.146-1.146-3.08-4.014-4.57l-4.341-2.257c-2.368-1.204-4.625-3.295-4.625-6.377,0-3.85,3.583-5.996,9.955-7.376a14.7867,14.7867,0,0,1,7.767,2.479v5.497h-2.92Z" transform="translate(-8 -5)"/><path class="cls-1" d="M545.834,277.696l-6.329.165-.279-1.925,3.849-.545V255.308l-3.849.333-.269-1.925,6.602-1.712,2.745-.218V275.39l4.129.545-.28,1.925Zm-2.76-37.851,3.966-.268,1.543.268.28,3.082-.613,2.648-3.902.322-1.485-.322-.328-3.083Z" transform="translate(-8 -5)"/><path class="cls-1" d="M573.12,290.733v-5.497h4.726l5.452-8.309-2.204.666-9.242-23.164h-8.301v16.777c0,1.592.603,3.305,2.918,3.305a11.5968,11.5968,0,0,0,4.837-1.547l.933,1.869-6.929,3.804c-6.164,0-6.988-2.202-6.988-7.153v-16.397h-5.34v-.935l1.931-1.926h3.578v-3.571l3.569-3.583h1.438v6.877h17.331l.266,1.868-3.628.558,6.111,16.121.435,3.793,6.818-19.914-2.525-.558.275-1.924,4.842.167,4.563-.167.28,1.924-3.52.558-8.922,22.495-6.153,13.863H573.12Z" transform="translate(-8 -5)"/><path class="cls-1" d="M634.527,264.331c0,8.2-5.006,12.93-13.544,14.307-7.31,0-12.261-5.673-12.261-13.149,0-8.256,4.992-12.927,13.533-14.362C629.574,251.126,634.527,256.845,634.527,264.331Zm-12.163,11.606c4.397,0,6.655-4.508,6.655-10.448,0-6.986-3.357-11.671-8.143-11.671-4.455,0-6.656,4.519-6.656,10.514C614.221,270.606,617.472,275.937,622.364,275.937Z" transform="translate(-8 -5)"/><path class="cls-1" d="M646.899,252.506h6.875v2.581h-6.875v20.305l6.329.378-.275,2.092-8.526-.165-6.329.165-.279-1.925,3.854-.545V255.087h-4.839v-.935l1.655-1.926h3.184v-.545a10.6944,10.6944,0,0,1,3.023-7.709l4.631-5.219h6.927v4.395h-7.148l-1.051,1.49c-.763,1.047-1.154,2.639-1.154,6.21v1.658Z" transform="translate(-8 -5)"/><path class="cls-1" d="M695.868,277.861l-8.913-.165-9.247.165-.266-1.925,6.599-.712V241.881l-8.253.11-2.527,6.988H671.11v-9.736l15.792.166,15.841-.166v9.736h-2.146l-2.522-6.988-8.258-.11v33.343l6.328.712Z" transform="translate(-8 -5)"/><path class="cls-1" d="M705.656,263.775c0,6.275,3.361,10.736,9.136,10.736a14.2082,14.2082,0,0,0,6.877-2.313l.878,2.091a33.5143,33.5143,0,0,1-9.627,4.349c-6.651,0-12.647-4.736-12.647-13.371,0-8.145,4.896-12.484,12.426-14.141,7.265,0,9.739,4.571,9.739,10.348v2.302H705.656Zm11.061-2.748c0-4.233-.825-7.154-5.061-7.154-3.348,0-5.499,3.138-5.942,7.711Z" transform="translate(-8 -5)"/><path class="cls-1" d="M734.987,275.937l-.275,1.925-4.292-.165-5.668.165-.275-1.925,3.859-.545,8.133-10.014L728.49,254.43l-3.405-.557.271-1.979,6.327.167,5.229-.167.279,1.979-2.151.557,4.076,6.107.435,1.426,5.229-7.533-2.695-.557.275-1.979,4.287.167,5.672-.167.271,1.979-3.96.557-7.266,8.801,8.645,12.161,3.405.545-.266,1.925-6.333-.165-5.229.165-.273-1.925,2.256-.545-4.899-7.098-.436-1.27-5.833,8.367Z" transform="translate(-8 -5)"/><path class="cls-1" d="M766.186,251.126c6.933,0,8.688,1.759,8.688,8.745v10.791c0,2.358.379,3.239.936,4.117h2.749l.223,1.93-7.1,1.374-1.698-4.237-6.552,4.792c-4.731,0-8.093-2.646-8.093-7.042a8.0856,8.0856,0,0,1,1.93-5.061l12.377-4.129v-2.747c0-3.304-.275-5.284-3.247-5.284a13.1036,13.1036,0,0,0-4.505.989l-.936,4.351h-4.731V255.53Zm3.459,13.482-7.974,3.295a4.1982,4.1982,0,0,0-1.104,3.082c0,2.805,1.601,3.794,3.192,3.794a6.5438,6.5438,0,0,0,3.574-1.426l2.311-1.6v-7.145Z" transform="translate(-8 -5)"/><path class="cls-1" d="M795.837,255.031a8.6342,8.6342,0,0,0-4.184-1.214c-2.146,0-4.182,1.158-4.182,3.249,0,1.759,1.38,2.86,3.85,4.13l4.236,2.146c3.685,1.869,5.174,3.961,5.174,7.098,0,4.952-4.018,6.821-10.346,8.198a18.8115,18.8115,0,0,1-8.355-2.479l-1.046-6.218h3.517l1.871,4.571a8.3022,8.3022,0,0,0,4.515,1.369,4.0109,4.0109,0,0,0,4.396-4.175c0-2.146-1.147-3.08-4.019-4.57l-4.341-2.257c-2.365-1.204-4.623-3.295-4.623-6.377,0-3.85,3.581-5.996,9.954-7.376a14.7785,14.7785,0,0,1,7.769,2.479v5.497h-2.918Z" transform="translate(-8 -5)"/><path class="cls-1" d="M828.458,251.126c6.931,0,8.691,1.759,8.691,8.745v10.791a6.6744,6.6744,0,0,0,.937,4.117h2.754l.207,1.93-7.085,1.374-1.708-4.237-6.541,4.792c-4.731,0-8.093-2.646-8.093-7.042a8.0323,8.0323,0,0,1,1.928-5.061l12.378-4.129v-2.747c0-3.304-.274-5.284-3.246-5.284a13.1412,13.1412,0,0,0-4.518.989l-.934,4.351h-4.73V255.53Zm3.468,13.482-7.973,3.295a4.1423,4.1423,0,0,0-1.105,3.082c0,2.805,1.593,3.794,3.193,3.794a6.534,6.534,0,0,0,3.574-1.426l2.311-1.6v-7.145Z" transform="translate(-8 -5)"/><path class="cls-1" d="M840.791,255.087v-.935l1.925-1.926h3.569v-3.571l3.584-3.583h1.423v7.545h8.311v2.47H851.35v16.12c0,1.592.609,3.305,2.913,3.305a9.3063,9.3063,0,0,0,4.352-1.325l.931,1.87-6.439,3.581c-6.154,0-6.984-2.202-6.984-7.153V255.088H840.791Z" transform="translate(-8 -5)"/><path class="cls-1" d="M882.823,264.934l-3.58,10.291,4.781.712-.266,1.925-6.607-.165-5.886.165-.279-1.925,4.293-.601,13.639-35.648,3.307-.934,14.364,36.582,4.282.601-.269,1.925-7.597-.165-7.255.165-.276-1.925,4.671-.712-3.738-10.291H882.823Zm7.313-17.112-.381-2.972-6.053,17.5h11.715Z" transform="translate(-8 -5)"/><path class="cls-1" d="M934.262,270.662a9.11,9.11,0,0,0,.655,4.117h2.76l.212,1.93-7.104,1.374-1.531-4.45-7.978,5.005c-7.265,0-8.472-2.591-8.472-8.967V255.309l-3.853.277-.27-2.146,6.599-1.435,2.749-.218v18.319c0,2.858,1.211,4.128,3.902,4.128,1.712,0,3.907-1.381,6-2.75l1.1-.72V255.308l-3.294.277-.279-2.146,6.053-1.435,2.75-.218v18.876Z" transform="translate(-8 -5)"/><path class="cls-1" d="M955.225,255.031a8.6254,8.6254,0,0,0-4.187-1.214c-2.147,0-4.183,1.158-4.183,3.249,0,1.759,1.38,2.86,3.85,4.13l4.239,2.146c3.694,1.869,5.176,3.961,5.176,7.098,0,4.952-4.018,6.821-10.347,8.198a18.826,18.826,0,0,1-8.358-2.479l-1.047-6.218h3.517l1.877,4.571a8.2654,8.2654,0,0,0,4.509,1.369c2.918,0,4.405-1.869,4.405-4.175,0-2.146-1.154-3.08-4.016-4.57l-4.35-2.257c-2.368-1.204-4.615-3.295-4.615-6.377,0-3.85,3.568-5.996,9.955-7.376a14.7453,14.7453,0,0,1,7.756,2.479v5.497h-2.913Z" transform="translate(-8 -5)"/><path class="cls-1" d="M961.881,255.087v-.935l1.924-1.926h3.579v-3.571l3.575-3.583h1.433v7.545h8.3v2.47H972.45v16.12c0,1.592.598,3.305,2.913,3.305a9.2479,9.2479,0,0,0,4.339-1.325l.932,1.87-6.428,3.581c-6.164,0-6.985-2.202-6.985-7.153V255.088h-5.34Z" transform="translate(-8 -5)"/><path class="cls-1" d="M990.44,277.696l-6.328.165-.279-1.925,3.847-.545V255.308l-3.847.333-.271-1.925,6.599-1.712,2.749-.218V275.39l4.129.545-.279,1.925Zm-2.76-37.851,3.965-.268,1.546.268.275,3.082-.608,2.648-3.908.322-1.479-.322-.333-3.083Z" transform="translate(-8 -5)"/><path class="cls-1" d="M1006.117,277.696l-6.329.165-.269-1.925,3.849-.545V255.308l-3.849.333-.281-1.925,6.6-1.712,2.372-.167.275,4.628,8.132-5.34c7.043,0,8.2011,2.369,8.2011,8.967v15.299l4.182.545-.274,1.925-6.319-.165-5.287.165-.279-1.925,2.752-.545V259.659c0-2.865-1.261-4.129-3.63-4.129-1.925,0-3.849,1.212-5.716,2.473l-1.66,1.1v16.289l3.023.545-.264,1.925Z" transform="translate(-8 -5)"/></svg>