<svg id="Layer_1" data-name="Layer 1" xmlns="http://www.w3.org/2000/svg" viewBox="0 0 473.125 54"><defs><style>.cls-1{fill:#fff;}</style></defs><title>ut-logo-formal-horizontal-white</title><polygon class="cls-1" points="20.925 18.037 20.971 18.037 20.971 18.021 20.925 18.021 20.925 18.037 20.925 18.037"/><path class="cls-1" d="M80.373,65.334a22.04,22.04,0,0,0-3.1875-.34,5.9338,5.9338,0,0,0-1.3867.1485l-.2275-6.3575V57.73a4.3416,4.3416,0,0,1,1.6855-.2754,21.5974,21.5974,0,0,1,2.98.3066c.9463.1387,1.919.2754,2.916.34l.2735,7.6c-1.0235-.0567-2.0518-.211-3.0528-.3672Zm-10.8505,0c-1.001.1562-2.0293.31-3.0528.3672l.2735-7.6c.998-.0645,1.97-.2012,2.916-.34a21.5974,21.5974,0,0,1,2.98-.3066,4.3447,4.3447,0,0,1,1.6855.2754v1.0546l-.2265,6.3575a5.928,5.928,0,0,0-1.3868-.1485,22.024,22.024,0,0,0-3.1884.34ZM85.6758,60.85V59.4043h-.8926V56.9355h-.6016a26.0773,26.0773,0,0,1-3.77-.3652,22.5332,22.5332,0,0,0-3.1553-.32,5.3645,5.3645,0,0,0-2.3086.4414,5.3684,5.3684,0,0,0-2.3095-.4414,22.52,22.52,0,0,0-3.1543.32,26.0911,26.0911,0,0,1-3.77.3652h-.6016v2.4688h-.8916V60.85h.8916v1.957h-.8809v1.4453h.8809v2.68h.6016a26.1818,26.1818,0,0,0,3.9922-.4062,21.0934,21.0934,0,0,1,3.0048-.3281,3.5588,3.5588,0,0,1,1.6563.3183h1.1611a3.5631,3.5631,0,0,1,1.6572-.3183,21.0817,21.0817,0,0,1,3.004.3281,26.2039,26.2039,0,0,0,3.9921.4062h.6016v-2.68h.8809V62.8066h-.8809V60.85Z" transform="translate(-54 -51.8398)"/><path class="cls-1" d="M69.6865,58.8535c-.0595.0078-.1181.0176-.1777.0254-.5664.084-1.1416.168-1.7227.2344l-.0332.9746c.6426-.07,1.2735-.1641,1.8955-.2559l.0381-.0058v-.9727Z" transform="translate(-54 -51.8398)"/><path class="cls-1" d="M70.4092,58.75v.9726a13.251,13.251,0,0,1,2.78-.1777l.0351-.959a13.6944,13.6944,0,0,0-2.8154.1641Z" transform="translate(-54 -51.8398)"/><path class="cls-1" d="M69.6865,63.2617c-.0595.01-.1181.0176-.1777.0274-.6182.09-1.2461.1816-1.8809.2519l-.0351.9727c.6972-.0743,1.3828-.1739,2.0556-.2715l.0381-.0059v-.9746Z" transform="translate(-54 -51.8398)"/><path class="cls-1" d="M70.4092,63.16v.9727a14.1848,14.1848,0,0,1,2.622-.1894l.0352-.959a14.55,14.55,0,0,0-2.6572.1757Z" transform="translate(-54 -51.8398)"/><path class="cls-1" d="M69.5371,61.08v.9746l.1113-.0176a17.5943,17.5943,0,0,1,3.4629-.2949l.0332-.9571a18.1465,18.1465,0,0,0-3.6074.295Z" transform="translate(-54 -51.8398)"/><path class="cls-1" d="M68.8145,61.1836q-.5494.0791-1.1075.1445l-.0351.9727c.3857-.041.7666-.0918,1.1426-.1446v-.9726Z" transform="translate(-54 -51.8398)"/><path class="cls-1" d="M79.0469,58.6934a12.2677,12.2677,0,0,0-2.375-.1075l.0342.959a11.6027,11.6027,0,0,1,2.3408.1192v-.9707Z" transform="translate(-54 -51.8398)"/><path class="cls-1" d="M82.1094,59.1133c-.5811-.0664-1.1563-.15-1.7227-.2344-.207-.0293-.4121-.0605-.6172-.0879v.9727c.1582.0214.3164.0449.4785.0683.6211.0918,1.253.1856,1.8965.2559l-.0351-.9746Z" transform="translate(-54 -51.8398)"/><path class="cls-1" d="M78.85,60.875a12.1084,12.1084,0,0,0-2.1-.09l.0352.9571a11.2552,11.2552,0,0,1,2.0644.1015V60.875Z" transform="translate(-54 -51.8398)"/><path class="cls-1" d="M82.1885,61.3281c-.6074-.0683-1.21-.1562-1.8018-.2441-.2734-.0391-.5459-.08-.8144-.1172v.9726c.2207.0313.4453.0645.6757.0977.6465.0957,1.3057.1914,1.9756.2637l-.0351-.9727Z" transform="translate(-54 -51.8398)"/><path class="cls-1" d="M80.2949,64.248c.6563.0977,1.3262.1934,2.0078.2657l-.0341-.9727c-.6358-.07-1.2637-.1621-1.8819-.2519-.0312-.0059-.0605-.01-.0918-.0137v.9726Z" transform="translate(-54 -51.8398)"/><path class="cls-1" d="M79.5723,63.1719a15.0327,15.0327,0,0,0-2.7442-.1875l.0352.959a14.541,14.541,0,0,1,2.709.2011v-.9726Z" transform="translate(-54 -51.8398)"/><path class="cls-1" d="M73.6953,78.7226l1.2529-3.1347,1.2539,3.1347,3.37.2247-2.5957,2.1621.83,3.2715L74.9482,82.58l-2.8564,1.8008.8281-3.2715-2.5947-2.1621,3.37-.2247ZM66.06,77.6094v.0019l5.4463,3.959-2.0987,6.4512a.0507.0507,0,0,0,.0176.0312.05.05,0,0,0,.0332.0078l5.49-3.9921,5.4883,3.99a.0478.0478,0,0,0,.0332-.0059.0471.0471,0,0,0,.0108-.0586l-2.0879-6.4257,5.4453-3.9571-.002-.0019a.0485.0485,0,0,0,.0332-.0606.0474.0474,0,0,0-.0605-.0273v-.002H77.0762l-2.0791-6.4023h-.003a.0483.0483,0,0,0-.0459-.0508.049.049,0,0,0-.0459.0508h-.0029L72.82,77.5195H66.0889l-.002.0039a.0453.0453,0,1,0-.0273.086Z" transform="translate(-54 -51.8398)"/><path class="cls-1" d="M88.4639,85.7012a3.6006,3.6006,0,0,1-1.833,1.0879,3.6181,3.6181,0,0,1,2.7363-3.0235,3.61,3.61,0,0,1-.9033,1.9356ZM85.83,81.4668a3.6439,3.6439,0,0,1,.3594-2.1074,3.64,3.64,0,0,1,.8857,1.9433,3.6029,3.6029,0,0,1-.3565,2.1016,3.6253,3.6253,0,0,1-.8886-1.9375Zm1.458-5.5117a3.659,3.659,0,0,1,.2324-2.125,3.6346,3.6346,0,0,1,.77,4.01,3.6414,3.6414,0,0,1-1.0019-1.8847Zm3.48,1.6074A3.6265,3.6265,0,0,1,88.7148,81.09a3.6187,3.6187,0,0,1,2.0528-3.5273Zm-5.334,13.6894a3.608,3.608,0,0,1-2.0176.6875,3.61,3.61,0,0,1,3.3008-2.3945,3.612,3.612,0,0,1-1.2832,1.707Zm-1.7031-4.6875a3.63,3.63,0,0,1,.7871-1.9863,3.6349,3.6349,0,0,1-.32,4.0684,3.6278,3.6278,0,0,1-.4668-2.0821Zm-1.9014,4.9082a3.6114,3.6114,0,0,1-1.1777,1.7793,3.62,3.62,0,0,1,1.1523-3.914,3.6226,3.6226,0,0,1,.0254,2.1347ZM82.9307,94.65a3.6057,3.6057,0,0,1-1.61,1.4062,3.5511,3.5511,0,0,1-1.4658.3145h0a3.6216,3.6216,0,0,1-.6494-.0586A3.6219,3.6219,0,0,1,82.9307,94.65Zm-6.2881.2851a3.6268,3.6268,0,0,1,1.5234-1.5A3.636,3.636,0,0,1,76.23,97.0293a3.6191,3.6191,0,0,1,.4131-2.0938Zm-8.1377,1.1211A3.6132,3.6132,0,0,1,66.8955,94.65a3.62,3.62,0,0,1,3.7256,1.6621,3.5864,3.5864,0,0,1-2.1162-.2559Zm-.5078-4.5859a3.6165,3.6165,0,0,1,.0263-2.1328,3.62,3.62,0,0,1,1.1514,3.914,3.6076,3.6076,0,0,1-1.1777-1.7812Zm3.665,1.9648a3.6175,3.6175,0,0,1,1.9346,3.5938,3.63,3.63,0,0,1-1.9346-3.5938Zm-7.2685-2.1836a3.6192,3.6192,0,0,1-1.2842-1.707,3.6154,3.6154,0,0,1,3.3017,2.3945,3.6079,3.6079,0,0,1-2.0175-.6875Zm.916-6.6738a3.62,3.62,0,0,1,.3183,4.0684,3.6305,3.6305,0,0,1-.3183-4.0684Zm-3.9473,1.1231a3.6233,3.6233,0,0,1-.9023-1.9356,3.6223,3.6223,0,0,1,2.7353,3.0235,3.6,3.6,0,0,1-1.833-1.0879Zm-.25-4.6114A3.6225,3.6225,0,0,1,59.06,77.5625,3.6184,3.6184,0,0,1,61.1123,81.09Zm.1924-5.375a3.6307,3.6307,0,0,1,1.001-1.8847,3.63,3.63,0,0,1-.77,4.01,3.6074,3.6074,0,0,1-.2314-2.125Zm1.4463,5.586a3.6341,3.6341,0,0,1,.8867-1.9414,3.6212,3.6212,0,0,1-.5283,4.0449,3.6,3.6,0,0,1-.3584-2.1035Zm25.7148.9121a4.5888,4.5888,0,0,0,3.1592-5.42l-.1133-.502-.4941.1465a4.5817,4.5817,0,0,0-1.544.8047,4.6057,4.6057,0,0,0-1.8154-4.5567l-.417-.3046-.2744.4375a4.5928,4.5928,0,0,0,1.1709,6.1542,4.55,4.55,0,0,0-.35,1.2266,4.6021,4.6021,0,0,0-1.3916-1.9726l-.3985-.33-.3007.42A4.5978,4.5978,0,0,0,86.51,84.543l.0214.0136a4.5391,4.5391,0,0,0-.623,1.1719,4.605,4.605,0,0,0-.9551-2.2187l-.3222-.4043-.3809.35a4.5942,4.5942,0,0,0-.49,6.2578l.02.0234a4.495,4.495,0,0,0-.8535,1.0156,4.5992,4.5992,0,0,0-.4746-2.371L82.22,87.92l-.4443.2637a4.5918,4.5918,0,0,0-1.7715,6.0234l.0117.0254a4.47,4.47,0,0,0-1.0429.8184,4.5878,4.5878,0,0,0,.0234-2.416l-.1309-.5-.49.164a4.586,4.586,0,0,0-2.999,5.418q-.2213.1524-.4629.3164-.2417-.1641-.4629-.3164a4.5859,4.5859,0,0,0-2.999-5.418l-.4893-.164-.1308.5a4.5868,4.5868,0,0,0,.0234,2.416,4.4969,4.4969,0,0,0-1.044-.8184l.0127-.0254a4.5933,4.5933,0,0,0-1.7724-6.0234l-.4434-.2637-.2314.461a4.5791,4.5791,0,0,0-.4746,2.371,4.53,4.53,0,0,0-.8535-1.0156l.0175-.0234a4.5938,4.5938,0,0,0-.49-6.2578l-.3809-.35-.32.4043a4.5964,4.5964,0,0,0-.9551,2.2187,4.5731,4.5731,0,0,0-.624-1.1719l.0215-.0136a4.5968,4.5968,0,0,0,.8135-6.2266l-.3008-.42-.3975.33a4.574,4.574,0,0,0-1.3925,1.9746,4.4773,4.4773,0,0,0-.3506-1.2286,4.5928,4.5928,0,0,0,1.1709-6.1542l-.2744-.4375-.417.3046a4.5978,4.5978,0,0,0-1.8155,4.5567,4.5813,4.5813,0,0,0-1.5439-.8047l-.4941-.1465-.1133.502a4.5885,4.5885,0,0,0,3.1592,5.42l.4355.1308a4.6264,4.6264,0,0,0,.2686,1.0743,4.5266,4.5266,0,0,0-2.0831-.7012l-.5127-.043-.0078.5176a4.5869,4.5869,0,0,0,4.21,4.6465l.4531.039a4.4478,4.4478,0,0,0,.4844.9922,4.5569,4.5569,0,0,0-1.5977-.289,4.8791,4.8791,0,0,0-.5849.0351l-.5117.0664.1.5039a4.6078,4.6078,0,0,0,1.8144,2.8477,4.5466,4.5466,0,0,0,2.6905.8711,4.6843,4.6843,0,0,0,.5742-.0352l.4511-.0586a4.5723,4.5723,0,0,0,.6817.8731,4.59,4.59,0,0,0-2.1895.2012l-.4882.17.2031.4746a4.6029,4.6029,0,0,0,2.3613,2.4082,4.5309,4.5309,0,0,0,1.8594.3965,4.6232,4.6232,0,0,0,1.5088-.2539l.3593-.125a26.931,26.931,0,0,0,2.209,1.6562c-.4238.2793-.8945.586-1.42.9219l.9063.5625c.5117-.33.9648-.627,1.3779-.9023.4131.2753.8662.5722,1.3779.9023l.9063-.5625c-.5254-.3359-.9952-.6426-1.419-.9219a27.0509,27.0509,0,0,0,2.208-1.6562l.3594.125a4.6321,4.6321,0,0,0,1.5088.2539h0a4.56,4.56,0,0,0,1.8594-.3946,4.6082,4.6082,0,0,0,2.3623-2.41l.2011-.4746-.4863-.17a4.5666,4.5666,0,0,0-2.1894-.1993,4.5719,4.5719,0,0,0,.6806-.875l.4512.0586a4.7115,4.7115,0,0,0,.5752.0352h0a4.5455,4.5455,0,0,0,2.6894-.8711,4.6037,4.6037,0,0,0,1.8145-2.8477l.1-.5039L87.4,88.6152a4.8932,4.8932,0,0,0-.585-.0351,4.5522,4.5522,0,0,0-1.5967.289,4.5315,4.5315,0,0,0,.4844-.9922l.4522-.039a4.5887,4.5887,0,0,0,4.21-4.6465l-.0058-.5176-.5157.043a4.53,4.53,0,0,0-2.082.7012,4.6284,4.6284,0,0,0,.2695-1.0743l.4346-.1308Z" transform="translate(-54 -51.8398)"/><path class="cls-1" d="M88.59,92.3945a25.4458,25.4458,0,0,1-3.4589,4.0645,37.1333,37.1333,0,0,1-10.1875,6.5058A37.16,37.16,0,0,1,64.7549,96.459a25.4908,25.4908,0,0,1-3.458-4.0645c-4.7442-6.9472-5.3672-15.0019-5.3711-21.2617h.0058l19.0166-1.0566,19.0127,1.0547c-.0048,6.26-.6269,14.3164-5.3711,21.2636ZM56.94,54.9687c3.5352-.3925,11.4834-1.1836,18.0078-1.1836s14.4717.7911,18.0069,1.1836l.9892,13.93H55.9512l.9892-13.93Zm38.9483-1.6113-.8428-.1055A196.1227,196.1227,0,0,0,74.9541,51.84h-.0127a196.0578,196.0578,0,0,0-20.09,1.4121l-.8438.1055v15.541H54v2.168c0,6.5469.6484,15.0078,5.707,22.416a27.3448,27.3448,0,0,0,3.6455,4.3027l-.0009.002.0283.0234a55.05,55.05,0,0,0,11.5586,8.0215v.0078l.0049-.0039.0048.0039v-.0078A55.05,55.05,0,0,0,86.5068,97.81l.0274-.0234v-.002a27.46,27.46,0,0,0,3.6465-4.3027c5.0576-7.4082,5.707-15.8691,5.707-22.416v-.3086h.001v-17.4Z" transform="translate(-54 -51.8398)"/><path class="cls-1" d="M135.0278,87.9434l-2.82.09-.15-1.05,1.47-.3v-8.58c0-1.56-.72-2.25-1.92-2.25a7.2208,7.2208,0,0,0-3.18,1.35l-.9.57v8.91l1.65.3-.15,1.05-2.85-.09-3.15.09-.15-1.05,1.8-.3V68.3242l-1.08.18-6.09-.09V86.5933l3.45.39-.15,1.05-4.8594-.09-5.04.09-.15-1.05,3.6-.39V68.4141l-4.4995.09-1.38,3.75h-1.17v-5.31l8.6094.06,7.38-.06,3.21-.36h1.0195v9.7192l4.38-2.85c3.84,0,4.47,1.44,4.47,5.2495v7.98l2.2495.3-.15,1.05Z" transform="translate(-54 -51.8398)"/><path class="cls-1" d="M142.8286,80.3535c0,3.42,1.83,5.85,4.98,5.85a7.7678,7.7678,0,0,0,3.75-1.26l.4795,1.14a18.2959,18.2959,0,0,1-5.2495,2.37c-3.63,0-6.9-2.58-6.9-7.29,0-4.44,2.67-6.81,6.78-7.7095,3.96,0,5.31,2.49,5.31,5.64v1.26Zm6.03-1.4995c0-2.31-.45-3.9-2.76-3.9-1.83,0-3,1.71-3.24,4.2Z" transform="translate(-54 -51.8398)"/><path class="cls-1" d="M172.7075,68.0244l.15-1.05,3.84.09,3.51-.09.15,1.05-2.55.39v12.24c0,3.9-1.59,6.51-7.5595,7.89-5.91,0-8.01-3.18-8.01-7.95v-12.18l-2.7-.39.15-1.05,4.14.09,4.11-.09.15,1.05-2.55.39v12.63c0,3.72,1.59,5.85,5.01,5.85,3.12,0,4.86-2.1,4.86-5.94V68.4141Z" transform="translate(-54 -51.8398)"/><path class="cls-1" d="M184.4077,87.9434l-3.45.09-.15-1.05,2.1-.3v-10.95l-2.1.18-.15-1.05,3.6-.93,1.29-.09.15,2.52,4.4394-2.91c3.84,0,4.47,1.29,4.47,4.89v8.34l2.28.3-.15,1.05-3.45-.09-2.88.09-.15-1.05,1.5-.3v-8.58c0-1.56-.69-2.25-1.98-2.25a6.0713,6.0713,0,0,0-3.12,1.35l-.9.6v8.88l1.65.3-.15,1.05Z" transform="translate(-54 -51.8398)"/><path class="cls-1" d="M201.5977,87.9434l-3.45.09-.15-1.05,2.1-.3v-10.95l-2.1.18-.15-1.05,3.6-.93,1.5-.12v12.87l2.25.3-.15,1.05Zm-1.5-20.6392,2.16-.15.84.15.15,1.68-.33,1.44-2.13.18-.81-.18-.18-1.68Z" transform="translate(-54 -51.8398)"/><path class="cls-1" d="M213.6274,86.0835l3.63-10.8594-1.38-.3.15-1.05,2.64.09,2.49-.09.15,1.05-1.92.3-4.92,12.3291-2.19.9-5.22-13.2295-1.86-.3.15-1.05,3.45.09,3.15-.09.15,1.05-1.98.3,3.27,8.79Z" transform="translate(-54 -51.8398)"/><path class="cls-1" d="M224.248,80.3535c0,3.42,1.83,5.85,4.98,5.85a7.764,7.764,0,0,0,3.7495-1.26l.4805,1.14a18.31,18.31,0,0,1-5.25,2.37c-3.63,0-6.9-2.58-6.9-7.29,0-4.44,2.67-6.81,6.78-7.7095,3.96,0,5.31,2.49,5.31,5.64v1.26Zm6.03-1.4995c0-2.31-.45-3.9-2.76-3.9-1.83,0-3,1.71-3.24,4.2Z" transform="translate(-54 -51.8398)"/><path class="cls-1" d="M240.1177,77.8037l3.42-4.2h2.4v3h-2.22a6.8319,6.8319,0,0,0-2.85,2.13l-.6.72v7.14l3.15.3-.15,1.14-4.35-.09-3.36.09-.15-1.05,2.1-.3v-10.95l-2.1.18-.15-1.05,3.6-.93,1.2-.09Z" transform="translate(-54 -51.8398)"/><path class="cls-1" d="M255.3887,75.584a4.6649,4.6649,0,0,0-2.28-.66c-1.17,0-2.28.63-2.28,1.77,0,.96.75,1.56,2.1006,2.25l2.31,1.17c2.01,1.02,2.82,2.16,2.82,3.87,0,2.7-2.19,3.72-5.6406,4.47a10.2838,10.2838,0,0,1-4.56-1.35l-.5693-3.39h1.92l1.0195,2.49a4.5077,4.5077,0,0,0,2.46.75,2.19,2.19,0,0,0,2.3994-2.28c0-1.17-.63-1.68-2.1895-2.49l-2.37-1.23a4.0517,4.0517,0,0,1-2.5195-3.48c0-2.1,1.95-3.2695,5.43-4.0195a8.03,8.03,0,0,1,4.23,1.35v3h-1.59Z" transform="translate(-54 -51.8398)"/><path class="cls-1" d="M263.6689,87.9434l-3.4492.09-.15-1.05,2.1-.3v-10.95l-2.1.18-.1494-1.05,3.6-.93,1.5-.12v12.87l2.25.3-.15,1.05Zm-1.5-20.6392,2.16-.15.84.15.15,1.68-.33,1.44-2.13.18-.81-.18-.1807-1.68Z" transform="translate(-54 -51.8398)"/><path class="cls-1" d="M278.5488,95.0532v-3h2.5791l2.9707-4.53-1.2.36-5.04-12.6294h-4.5293v9.1494c0,.87.3291,1.8,1.59,1.8a6.3149,6.3149,0,0,0,2.64-.84l.51,1.02-3.7793,2.07c-3.36,0-3.8106-1.2-3.8106-3.9v-8.94h-2.9092v-.51l1.05-1.05h1.9493v-1.95l1.95-1.95h.78v3.7495h9.4492l.15,1.02-1.98.3,3.33,8.79.24,2.07,3.72-10.8594-1.38-.3.15-1.05,2.64.09,2.49-.09.1494,1.05-1.92.3-4.8594,12.2695-3.36,7.56Z" transform="translate(-54 -51.8398)"/><path class="cls-1" d="M312.0273,80.6538c0,4.47-2.7294,7.05-7.38,7.8-3.9893,0-6.6895-3.09-6.6895-7.17,0-4.5,2.73-7.05,7.38-7.83C309.3281,73.4541,312.0273,76.5737,312.0273,80.6538Zm-6.63,6.33c2.4,0,3.63-2.46,3.63-5.7,0-3.81-1.8291-6.36-4.4394-6.36-2.43,0-3.63,2.46-3.63,5.73C300.958,84.0737,302.7275,86.9834,305.3975,86.9834Z" transform="translate(-54 -51.8398)"/><path class="cls-1" d="M318.7773,74.2041h3.75v1.41h-3.75v11.07l3.45.21-.1494,1.14-4.65-.09-3.4492.09-.15-1.05,2.1-.3v-11.07h-2.64v-.51l.9-1.05h1.7392v-.3a5.8172,5.8172,0,0,1,1.65-4.2l2.52-2.85h3.78v2.4h-3.9l-.5693.81c-.42.57-.6309,1.44-.6309,3.39Z" transform="translate(-54 -51.8398)"/><path class="cls-1" d="M345.4766,88.0332l-4.8594-.09-5.04.09-.15-1.05,3.6006-.39V68.4141l-4.5.06-1.38,3.81h-1.17v-5.31l8.6094.09,8.64-.09v5.31h-1.17l-1.38-3.81-4.5-.06V86.5933l3.45.39Z" transform="translate(-54 -51.8398)"/><path class="cls-1" d="M350.8164,80.3535c0,3.42,1.8291,5.85,4.9795,5.85a7.7661,7.7661,0,0,0,3.75-1.26l.4795,1.14a18.299,18.299,0,0,1-5.25,2.37c-3.6289,0-6.8994-2.58-6.8994-7.29,0-4.44,2.67-6.81,6.78-7.7095,3.959,0,5.31,2.49,5.31,5.64v1.26Zm6.0293-1.4995c0-2.31-.45-3.9-2.76-3.9-1.83,0-3,1.71-3.24,4.2Z" transform="translate(-54 -51.8398)"/><path class="cls-1" d="M366.8057,86.9834l-.1494,1.05-2.34-.09-3.09.09-.15-1.05,2.1-.3,4.44-5.46-4.35-5.97-1.86-.3.15-1.08,3.4493.09,2.8505-.09.1495,1.08-1.17.3,2.22,3.33.24.78,2.85-4.11-1.47-.3.15-1.08,2.34.09,3.09-.09.1494,1.08-2.1592.3-3.96,4.8,4.71,6.63,1.8594.3-.1494,1.05-3.45-.09-2.85.09-.15-1.05,1.23-.3-2.67-3.87-.24-.69-3.18,4.56Z" transform="translate(-54 -51.8398)"/><path class="cls-1" d="M383.8154,73.4541c3.78,0,4.74.96,4.74,4.7695v5.88a3.654,3.654,0,0,0,.51,2.25h1.5l.12,1.05-3.87.75-.93-2.31-3.57,2.61c-2.58,0-4.4091-1.44-4.4091-3.84a4.3946,4.3946,0,0,1,1.05-2.76l6.749-2.25V78.104c0-1.8-.1494-2.88-1.77-2.88a7.2084,7.2084,0,0,0-2.46.54l-.51,2.37h-2.58v-2.28Zm1.89,7.35-4.35,1.8a2.2807,2.2807,0,0,0-.6,1.68c0,1.53.87,2.07,1.74,2.07a3.5506,3.5506,0,0,0,1.9492-.78l1.26-.87Z" transform="translate(-54 -51.8398)"/><path class="cls-1" d="M399.9863,75.584a4.6648,4.6648,0,0,0-2.28-.66c-1.17,0-2.28.63-2.28,1.77,0,.96.75,1.56,2.1006,2.25l2.3095,1.17c2.01,1.02,2.82,2.16,2.82,3.87,0,2.7-2.19,3.72-5.6407,4.47a10.2829,10.2829,0,0,1-4.56-1.35l-.5694-3.39h1.92l1.02,2.49a4.5077,4.5077,0,0,0,2.46.75,2.19,2.19,0,0,0,2.3994-2.28c0-1.17-.63-1.68-2.1894-2.49l-2.37-1.23a4.0516,4.0516,0,0,1-2.52-3.48c0-2.1,1.95-3.2695,5.43-4.0195a8.0294,8.0294,0,0,1,4.23,1.35v3h-1.59Z" transform="translate(-54 -51.8398)"/><path class="cls-1" d="M417.7764,73.4541c3.78,0,4.74.96,4.74,4.7695v5.88a3.6538,3.6538,0,0,0,.51,2.25h1.5l.12,1.05-3.87.75-.93-2.31-3.57,2.61c-2.58,0-4.4092-1.44-4.4092-3.84a4.3946,4.3946,0,0,1,1.05-2.76l6.749-2.25V78.104c0-1.8-.1494-2.88-1.7695-2.88a7.209,7.209,0,0,0-2.46.54l-.51,2.37h-2.58v-2.28Zm1.89,7.35-4.35,1.8a2.2807,2.2807,0,0,0-.6,1.68c0,1.53.87,2.07,1.74,2.07a3.5509,3.5509,0,0,0,1.9493-.78l1.26-.87Z" transform="translate(-54 -51.8398)"/><path class="cls-1" d="M424.4971,75.6138v-.51l1.05-1.05h1.9492v-1.95l1.95-1.95h.78v4.11h4.5293v1.35h-4.4991v8.7895c0,.87.3291,1.8,1.59,1.8a5.051,5.051,0,0,0,2.3691-.72l.5108,1.02-3.51,1.95c-3.36,0-3.81-1.2-3.81-3.9v-8.94Z" transform="translate(-54 -51.8398)"/><path class="cls-1" d="M447.417,80.9839l-1.95,5.6094,2.61.39-.15,1.05-3.6-.09-3.21.09-.15-1.05,2.34-.33,7.4395-19.439,1.8008-.51,7.8291,19.9492,2.34.33-.1494,1.05-4.1406-.09-3.959.09-.15-1.05,2.55-.39-2.04-5.6094Zm3.9893-9.33-.21-1.62-3.3,9.5395h6.39Z" transform="translate(-54 -51.8398)"/><path class="cls-1" d="M475.4658,84.1035a4.9022,4.9022,0,0,0,.36,2.25h1.5l.12,1.05-3.87.75-.84-2.43-4.35,2.73c-3.96,0-4.62-1.41-4.62-4.89v-7.83l-2.1.15-.15-1.17,3.6-.78,1.5-.12v9.99c0,1.56.66,2.25,2.13,2.25a7.2962,7.2962,0,0,0,3.27-1.5l.6-.39v-8.43l-1.8.15-.15-1.17,3.3-.78,1.5-.12Z" transform="translate(-54 -51.8398)"/><path class="cls-1" d="M486.8965,75.584a4.6649,4.6649,0,0,0-2.28-.66c-1.17,0-2.28.63-2.28,1.77,0,.96.75,1.56,2.1006,2.25l2.31,1.17c2.01,1.02,2.82,2.16,2.82,3.87,0,2.7-2.19,3.72-5.6406,4.47a10.2838,10.2838,0,0,1-4.56-1.35l-.5693-3.39h1.92l1.0195,2.49a4.5077,4.5077,0,0,0,2.46.75,2.19,2.19,0,0,0,2.3994-2.28c0-1.17-.63-1.68-2.1894-2.49l-2.37-1.23a4.0517,4.0517,0,0,1-2.5195-3.48c0-2.1,1.95-3.2695,5.43-4.0195a8.03,8.03,0,0,1,4.2295,1.35v3h-1.59Z" transform="translate(-54 -51.8398)"/><path class="cls-1" d="M490.5273,75.6138v-.51l1.05-1.05h1.9493v-1.95l1.95-1.95h.78v4.11h4.5293v1.35h-4.499v8.7895c0,.87.33,1.8,1.59,1.8a5.051,5.051,0,0,0,2.3691-.72l.5107,1.02-3.51,1.95c-3.36,0-3.8106-1.2-3.8106-3.9v-8.94Z" transform="translate(-54 -51.8398)"/><path class="cls-1" d="M506.0957,87.9434l-3.4492.09-.15-1.05,2.1-.3v-10.95l-2.1.18-.1494-1.05,3.6-.93,1.5-.12v12.87l2.25.3-.15,1.05Zm-1.5-20.6392,2.16-.15.84.15.15,1.68-.33,1.44-2.13.18-.81-.18-.1807-1.68Z" transform="translate(-54 -51.8398)"/><path class="cls-1" d="M514.6455,87.9434l-3.4492.09-.15-1.05,2.1-.3v-10.95l-2.1.18-.1494-1.05,3.6-.93,1.29-.09.1494,2.52,4.4405-2.91c3.84,0,4.47,1.29,4.47,4.89v8.34l2.2793.3-.1494,1.05-3.45-.09-2.88.09-.1494-1.05,1.5-.3v-8.58c0-1.56-.69-2.25-1.98-2.25a6.0746,6.0746,0,0,0-3.12,1.35l-.8994.6v8.88l1.6494.3-.1494,1.05Z" transform="translate(-54 -51.8398)"/></svg>